<svg width="58" height="58" viewBox="0 0 58 58" fill="none" xmlns="http://www.w3.org/2000/svg">
<g clip-path="url(#clip0)">
<rect width="58" height="58" fill="white"/>
<circle cx="29" cy="29" r="28" fill="#8B89F0"/>
<ellipse cx="29.5" cy="30" rx="8.5" ry="8" fill="#FFEA00"/>
<path d="M28.3624 30.0303L36.0376 27.469L35.996 32.713L28.3624 30.0303Z" fill="white"/>
<path d="M40.5698 18.1934V34.7036C40.5698 35.7163 40.7109 36.48 40.9932 36.9946C41.292 37.5093 41.6406 37.8911 42.0391 38.1401C42.4375 38.3726 42.9438 38.4888 43.5581 38.4888C44.7866 38.4888 45.8076 38.1567 46.6211 37.4927C47.4346 36.812 48.082 35.9985 48.5635 35.0522C49.0449 34.106 49.377 33.1348 49.5596 32.1387C49.7588 31.126 49.8584 29.8726 49.8584 28.3784C49.8584 26.6851 49.6177 25.0498 49.1362 23.4727C48.6548 21.8789 47.9741 20.3848 47.0942 18.9902C46.231 17.5791 45.1851 16.2925 43.9565 15.1304C42.728 13.9517 41.3584 12.9473 39.8477 12.1172C38.3369 11.2705 36.71 10.6147 34.9668 10.1499C33.2236 9.68506 31.4058 9.45264 29.5132 9.45264C27.6372 9.45264 25.8276 9.69336 24.0845 10.1748C22.3579 10.6562 20.7393 11.3369 19.2285 12.2168C17.7344 13.0967 16.3647 14.1509 15.1196 15.3794C13.8911 16.6079 12.8369 17.9775 11.957 19.4883C11.0938 20.9824 10.4214 22.5928 9.93994 24.3193C9.4585 26.0459 9.21777 27.8389 9.21777 29.6982C9.21777 31.5742 9.4585 33.3838 9.93994 35.127C10.4214 36.8535 11.0938 38.4722 11.957 39.9829C12.8369 41.4937 13.8911 42.8633 15.1196 44.0918C16.3647 45.3203 17.7344 46.3745 19.2285 47.2544C20.7393 48.1343 22.3579 48.8149 24.0845 49.2964C25.8276 49.7778 27.6372 50.0186 29.5132 50.0186C31.4224 50.0186 33.2651 49.7612 35.0415 49.2466C36.8179 48.7485 38.478 48.0347 40.022 47.105L42.3628 51.0146C40.4868 52.1602 38.4614 53.04 36.2866 53.6543C34.1284 54.2852 31.8706 54.6006 29.5132 54.6006C27.2222 54.6006 25.0142 54.3018 22.8892 53.7041C20.7642 53.123 18.7803 52.293 16.9375 51.2139C15.0947 50.1348 13.4097 48.8315 11.8823 47.3042C10.3716 45.7935 9.07666 44.1167 7.99756 42.2739C6.91846 40.4312 6.08008 38.4473 5.48242 36.3223C4.90137 34.1973 4.61084 31.9893 4.61084 29.6982C4.61084 27.4238 4.90137 25.2324 5.48242 23.124C6.08008 20.999 6.91846 19.0151 7.99756 17.1724C9.07666 15.3296 10.3716 13.6528 11.8823 12.1421C13.4097 10.6313 15.0947 9.33643 16.9375 8.25732C18.7803 7.17822 20.7642 6.34814 22.8892 5.76709C25.0142 5.16943 27.2222 4.87061 29.5132 4.87061C31.8374 4.87061 34.062 5.16113 36.187 5.74219C38.3286 6.30664 40.3208 7.10352 42.1636 8.13281C44.0063 9.16211 45.6831 10.3989 47.1938 11.8433C48.7046 13.2876 49.9912 14.8813 51.0537 16.6245C52.1328 18.3677 52.9629 20.2354 53.5439 22.2275C54.1416 24.2031 54.4404 26.2534 54.4404 28.3784C54.4404 29.5073 54.3325 30.6445 54.1167 31.79C53.9009 32.9355 53.5771 34.0312 53.1455 35.0771C52.7139 36.123 52.1826 37.1025 51.5518 38.0156C50.9375 38.9287 50.2153 39.7256 49.3853 40.4062C48.5718 41.0703 47.667 41.6016 46.6709 42C45.6748 42.3818 44.5957 42.5728 43.4336 42.5728C41.9062 42.5728 40.6279 42.2407 39.5986 41.5767C38.5693 40.9126 37.7642 40.0576 37.1831 39.0117C36.1372 39.875 34.9585 40.5474 33.647 41.0288C32.3354 41.5103 30.9243 41.751 29.4136 41.751C27.6704 41.751 26.0684 41.4521 24.6074 40.8545C23.1631 40.2402 21.9097 39.4019 20.8472 38.3394C19.7847 37.2769 18.9546 36.04 18.3569 34.6289C17.7759 33.2178 17.4854 31.6987 17.4854 30.0718C17.4854 28.4614 17.7925 26.9507 18.4067 25.5396C19.021 24.1118 19.8594 22.8667 20.9219 21.8042C22.001 20.7417 23.2627 19.9033 24.707 19.2891C26.168 18.6582 27.7368 18.3428 29.4136 18.3428C30.6255 18.3428 31.7876 18.5088 32.8999 18.8408C34.0122 19.1729 35.0415 19.646 35.9878 20.2603V18.1934H40.5698ZM29.4136 37.144C30.9741 37.144 32.3188 36.7871 33.4478 36.0732C34.5767 35.3428 35.4233 34.4048 35.9878 33.2593V26.959C35.7056 26.3779 35.3403 25.8384 34.8921 25.3403C34.4604 24.8423 33.9624 24.4189 33.3979 24.0703C32.8335 23.7051 32.2109 23.4229 31.5303 23.2236C30.8662 23.0244 30.1606 22.9248 29.4136 22.9248C28.3511 22.9248 27.3716 23.1157 26.4751 23.4976C25.5786 23.8794 24.7983 24.394 24.1343 25.0415C23.4868 25.689 22.9805 26.4526 22.6152 27.3325C22.25 28.1958 22.0674 29.1089 22.0674 30.0718C22.0674 31.0513 22.2417 31.9727 22.5903 32.8359C22.939 33.6826 23.4287 34.4297 24.0596 35.0771C24.707 35.708 25.479 36.2144 26.3755 36.5962C27.2886 36.9614 28.3013 37.144 29.4136 37.144Z" fill="white"/>
<rect x="42" y="49.9" width="2" height="1" transform="rotate(-26.7427 42 49.9)" fill="#595959"/>
<rect x="41" y="47.9" width="2" height="1" transform="rotate(-26.7427 41 47.9)" fill="#595959"/>
<path d="M38.638 48.5038C38.4033 48.0039 38.6183 47.4083 39.1182 47.1736L40.0234 46.7487C40.5233 46.5139 41.1189 46.729 41.3536 47.2289L42.9288 50.5841C43.1635 51.084 42.9485 51.6796 42.4485 51.9143L41.5433 52.3392C41.0434 52.5739 40.4479 52.3589 40.2131 51.859L38.638 48.5038Z" fill="#ABAAAA"/>
</g>
<defs>
<clipPath id="clip0">
<rect width="58" height="58" fill="white"/>
</clipPath>
</defs>
</svg>
